<?xml version="1.0" standalone="no"?>
<!DOCTYPE svg PUBLIC "-//W3C//DTD SVG 20010904//EN"
 "http://www.w3.org/TR/2001/REC-SVG-20010904/DTD/svg10.dtd">
<svg version="1.0" xmlns="http://www.w3.org/2000/svg"
 width="1492.000000pt" height="1492.000000pt" viewBox="0 0 1492.000000 1492.000000"
 preserveAspectRatio="xMidYMid meet">
<metadata>
Created by potrace 1.11, written by Peter Selinger 2001-2013
</metadata>
<g transform="translate(0.000000,1492.000000) scale(0.100000,-0.100000)"
fill="#000000" stroke="none">
<path d="M1700 10915 c-3 -411 -1 -905 3 -912 4 -6 74 -9 164 -8 87 0 165 -1
174 -3 14 -3 16 -124 16 -1313 0 -720 -4 -1312 -9 -1315 -4 -3 -84 -6 -178 -6
-166 -1 -170 -2 -170 -22 -4 -156 -4 -926 0 -928 3 0 372 -2 821 -3 l816 -1 0
880 0 881 350 3 351 2 1 -782 c1 -431 1 -790 1 -798 0 -8 -1 -50 -1 -93 -1
-42 1 -81 5 -85 4 -4 379 -7 832 -8 l824 0 1 30 c1 17 1 35 0 39 -1 5 -3 205
-4 445 l-2 436 -32 7 c-18 3 -33 4 -33 0 0 -8 -280 -5 -288 4 -4 4 -8 370 -8
813 -1 444 -2 814 -3 822 -1 13 -55 15 -426 14 -234 0 -425 3 -425 7 0 4 4 10
8 13 5 3 42 60 82 128 41 68 77 125 80 128 3 3 14 21 24 40 11 19 22 37 26 40
3 3 33 50 65 105 33 55 62 102 65 105 3 3 37 57 75 120 38 63 73 117 77 118 4
2 8 8 8 13 0 16 93 159 104 160 6 1 99 2 206 3 l195 1 0 472 c0 308 -3 474
-10 476 -17 5 -1214 2 -1218 -3 -3 -3 -60 -117 -128 -255 -68 -137 -127 -251
-131 -253 -5 -2 -8 -9 -8 -16 0 -8 -38 -88 -84 -180 -46 -91 -81 -166 -77
-166 3 0 1 -4 -4 -8 -6 -4 -119 -226 -252 -494 -134 -269 -244 -488 -245 -488
-2 0 -3 418 -2 930 1 845 -1 930 -15 931 -9 1 -377 2 -818 3 l-803 1 0 -30z"/>
<path d="M6745 10942 c-2 -2 -20 -5 -41 -8 -33 -3 -95 -14 -114 -19 -3 -1 -21
-5 -40 -9 -19 -5 -41 -12 -50 -16 -8 -5 -49 -25 -90 -44 -73 -36 -102 -57
-185 -134 -122 -114 -217 -318 -243 -519 -4 -32 -7 -722 -7 -1533 0 -1201 3
-1487 14 -1540 7 -36 14 -72 16 -80 18 -90 106 -274 164 -342 l34 -39 66 68
c76 79 204 185 288 239 126 80 353 185 436 201 17 3 39 9 47 13 8 5 33 11 54
14 21 4 48 8 60 11 180 40 415 40 636 -1 259 -48 572 -199 766 -369 49 -42
142 -137 177 -178 23 -28 49 -58 57 -67 8 -8 41 -54 72 -101 l57 -86 106 1
105 0 1 25 c0 36 0 2648 0 2692 l-1 35 -777 0 -778 0 1 -461 c0 -253 3 -466 8
-473 4 -7 11 -10 16 -7 12 7 299 9 307 2 3 -4 14 -2 24 3 10 6 20 6 23 1 3 -4
5 -91 5 -192 0 -101 0 -191 0 -199 0 -8 0 -109 1 -225 0 -115 0 -214 -1 -220
-1 -5 -1 -13 0 -17 1 -9 -16 -10 -231 -10 -87 1 -162 3 -168 7 -5 3 -10 3 -10
-2 0 -4 -74 -8 -165 -8 l-165 0 -1 365 c0 201 0 374 0 385 0 11 0 85 0 165 -1
80 -1 152 -1 160 1 8 1 188 1 400 -1 212 0 392 0 400 0 8 0 184 0 390 l1 375
357 -1 c413 -2 396 -1 389 -13 -3 -4 -5 -32 -5 -62 -1 -30 -1 -79 -1 -109 -1
-69 -1 -71 2 -150 l3 -65 553 0 552 0 0 672 c0 370 -3 673 -7 674 -20 3 -2315
4 -2318 1z"/>
<path d="M9497 10935 c-3 -9 -1 -923 2 -936 0 -3 72 -5 159 -4 86 0 167 -1
179 -3 l21 -4 0 -1314 0 -1314 -26 -1 c-15 0 -97 -1 -182 0 l-155 1 0 -478 0
-477 1430 0 c787 0 1453 4 1480 8 28 4 65 11 83 16 17 5 32 8 32 5 0 -4 83 28
140 54 107 49 222 146 295 248 43 59 104 176 109 206 1 7 4 18 7 23 6 10 24
81 34 135 15 78 18 190 18 610 1 452 -2 515 -25 610 -35 146 -143 269 -301
344 -78 36 -220 86 -255 89 -12 1 -22 5 -22 9 0 4 -10 5 -22 3 -13 -3 -18 -1
-12 4 5 5 29 12 54 15 25 3 70 13 100 22 30 8 62 17 71 19 21 4 157 70 183 87
51 35 111 98 144 152 20 33 37 62 38 65 0 3 8 31 17 61 28 87 30 133 31 530 0
444 -5 506 -50 654 -97 315 -363 529 -699 562 -115 12 -2874 10 -2878 -1z
m2328 -944 c10 -1 15 -820 5 -822 -3 -1 -161 -2 -351 -3 l-346 -1 2 415 c1
228 3 415 3 415 127 0 680 -3 687 -4z m10 -2148 c0 -317 -3 -483 -10 -484 -5
0 -163 0 -350 -1 l-340 0 -2 463 c-1 255 0 473 3 485 4 21 6 21 351 20 l348
-1 0 -482z"/>
<path d="M7367 7084 c-1 -1 -32 -4 -68 -8 -57 -5 -103 -13 -187 -30 -132 -28
-378 -133 -492 -211 -71 -48 -193 -148 -247 -202 -80 -80 -194 -228 -242 -313
-72 -128 -152 -322 -164 -396 -3 -16 -9 -47 -15 -69 -12 -47 -23 -121 -27
-187 -2 -26 -6 -52 -10 -58 -3 -5 -1 -10 5 -10 6 0 8 -5 4 -11 -8 -13 -12
-119 -4 -119 3 0 5 -21 4 -47 -1 -58 26 -212 54 -308 25 -86 64 -198 71 -205
7 -6 51 -97 51 -105 0 -8 70 -117 119 -184 50 -69 231 -258 296 -307 131 -100
359 -221 470 -251 6 -1 43 -11 82 -22 40 -11 90 -23 111 -26 21 -3 49 -8 62
-10 86 -18 257 -23 381 -11 119 11 327 61 404 96 30 14 79 32 84 30 2 -1 7 2
10 7 3 4 37 24 75 43 67 34 149 84 172 105 6 5 22 17 34 25 110 75 274 250
363 388 53 82 123 213 143 267 18 49 43 126 45 140 0 6 5 17 10 26 4 9 11 28
14 42 19 95 25 127 32 182 10 73 9 300 0 375 -5 36 -10 76 -12 90 -3 21 -11
57 -29 130 -2 8 -12 38 -21 65 -10 28 -18 55 -20 60 -7 32 -78 189 -87 193 -4
2 -8 8 -8 13 0 6 -16 35 -35 65 -19 30 -35 58 -35 63 0 5 -3 11 -7 13 -5 2
-28 30 -52 63 -77 104 -195 217 -346 333 -103 78 -345 191 -490 228 -16 4 -34
8 -40 10 -5 1 -23 5 -40 8 -16 3 -41 8 -54 11 -67 13 -352 29 -364 19z m203
-188 c47 -3 96 -8 110 -11 14 -3 43 -8 65 -11 119 -18 430 -151 494 -212 8 -8
32 -25 53 -38 112 -71 330 -334 398 -479 39 -84 79 -185 83 -208 2 -12 7 -29
10 -37 7 -16 14 -47 27 -120 17 -99 22 -149 21 -251 -1 -101 -4 -142 -18 -219
-3 -19 -7 -42 -8 -50 -1 -8 -14 -58 -29 -110 -54 -189 -185 -413 -328 -560
-83 -86 -219 -194 -288 -228 -14 -7 -45 -23 -69 -37 -24 -13 -73 -36 -110 -50
-36 -14 -75 -30 -86 -35 -33 -15 -168 -47 -192 -45 -13 1 -23 -1 -23 -5 0 -8
-15 -9 -182 -14 -75 -2 -158 0 -185 5 -26 4 -64 10 -83 13 -39 5 -51 8 -130
29 -86 24 -91 26 -215 83 -146 67 -260 149 -387 276 -69 70 -158 178 -158 193
0 3 -8 15 -18 25 -53 57 -173 348 -188 455 -2 17 -6 36 -9 44 -9 24 -19 141
-19 231 0 130 11 226 38 332 27 106 92 279 110 290 6 4 8 8 4 8 -11 0 89 157
142 225 60 75 189 199 255 245 28 19 52 37 55 40 16 17 205 119 230 124 3 1
10 4 15 8 22 13 203 67 250 73 28 4 59 9 70 11 11 2 56 7 100 10 44 4 82 8 83
10 2 1 9 1 15 -1 7 -2 50 -6 97 -9z"/>
<path d="M7420 6572 c-14 -42 -25 -79 -25 -82 0 -3 -8 -25 -16 -50 -25 -67
-89 -265 -94 -286 -3 -16 -24 -81 -53 -164 -3 -8 -6 -18 -7 -22 -2 -5 -4 -10
-5 -13 -1 -3 -4 -9 -5 -15 -1 -5 -3 -11 -4 -12 -2 -2 -5 -14 -7 -27 -2 -14 -7
-27 -10 -30 -3 -3 -189 -6 -414 -6 -444 0 -428 3 -346 -54 64 -43 569 -412
584 -426 11 -10 1 -50 -57 -226 -38 -118 -88 -272 -111 -344 -23 -71 -49 -149
-57 -173 -9 -23 -14 -44 -12 -47 3 -2 18 7 34 20 29 23 374 274 520 378 39 28
72 53 75 57 24 34 107 -17 500 -310 38 -28 141 -103 177 -128 l32 -22 -9 27
c-5 16 -16 51 -25 78 -9 28 -18 55 -19 62 -1 7 -5 16 -9 19 -4 4 -7 16 -7 26
0 10 -4 26 -9 36 -5 9 -47 134 -94 277 l-84 260 61 44 c34 25 67 51 74 58 7 7
17 13 21 13 4 0 16 8 27 18 10 10 42 33 69 52 28 19 55 39 61 45 6 5 37 28 68
50 83 58 180 129 186 135 3 3 24 18 48 33 23 15 41 31 38 35 -2 4 -186 7 -409
7 l-404 0 -29 90 c-15 50 -28 92 -29 95 -1 3 -4 12 -8 20 -10 26 -160 494
-163 508 -1 8 -6 21 -10 30 -4 9 -8 20 -8 24 -3 25 -14 6 -36 -60z m44 -439
c13 -53 128 -398 136 -408 5 -6 96 -10 240 -9 l232 1 -29 -23 c-44 -36 -45
-37 -98 -74 -27 -19 -52 -37 -55 -40 -4 -5 -162 -121 -192 -141 -7 -5 100
-358 133 -437 7 -18 6 -22 -3 -16 -13 7 -173 121 -193 136 -56 44 -89 68 -94
68 -4 0 -16 8 -27 18 -63 58 -52 61 -213 -55 -80 -58 -165 -121 -189 -140 -24
-20 -45 -34 -47 -32 -2 2 27 99 65 214 37 116 69 216 71 224 3 9 -66 65 -183
150 -103 75 -187 139 -188 142 0 3 99 6 220 5 122 -1 228 1 236 4 12 5 91 214
108 290 9 37 40 126 47 136 5 6 5 15 1 19 -4 5 -2 5 4 2 7 -4 15 -19 18 -34z"/>
<path d="M70 6198 c0 -3 -10 -4 -22 -1 -23 5 -23 5 -3 -10 11 -9 23 -17 28
-17 4 0 51 -21 105 -46 53 -26 131 -62 172 -81 41 -19 104 -49 140 -66 36 -17
67 -32 70 -32 3 -1 46 -21 95 -44 50 -24 151 -72 225 -106 134 -62 181 -84
378 -177 56 -26 107 -48 112 -48 6 0 10 -4 10 -10 0 -5 3 -9 8 -8 4 1 25 -6
47 -16 22 -10 51 -18 65 -19 29 -1 164 12 200 18 14 3 60 7 102 10 43 4 87 8
98 10 12 2 56 7 98 10 42 3 88 8 102 10 14 3 57 7 95 10 39 4 81 8 95 10 14 2
54 6 90 10 36 3 88 8 115 11 110 12 132 14 190 20 33 3 74 8 90 10 17 1 62 6
100 9 39 3 84 7 100 10 17 3 55 7 85 10 30 3 78 7 105 10 65 7 140 15 190 20
22 2 65 6 95 9 30 3 78 8 105 11 28 3 70 7 95 10 65 7 148 15 200 20 67 6 150
15 195 20 71 9 169 18 198 19 15 1 27 3 27 6 0 3 21 5 48 6 54 1 190 13 212
19 8 2 47 6 85 9 39 3 86 8 105 10 19 2 64 7 100 11 36 4 83 9 105 11 22 3 72
7 110 9 39 2 70 5 70 5 0 4 102 16 205 25 51 4 161 16 190 20 14 2 61 7 105
10 132 12 150 14 150 15 0 1 14 3 30 5 17 1 35 3 40 4 6 0 11 11 12 22 2 23
48 163 62 189 8 14 -95 16 -988 18 -2413 7 -4381 12 -4446 11 -38 0 -79 0 -90
0 -11 0 -42 0 -70 0 -27 -1 -66 0 -85 1 -112 5 -150 4 -150 -2z"/>
<path d="M14596 6202 c-2 -1 -860 -5 -1907 -7 -3086 -7 -3669 -9 -3669 -15 0
-3 16 -49 34 -102 19 -54 32 -98 28 -98 -20 0 24 -25 46 -26 15 -1 52 -4 82
-8 30 -3 80 -8 110 -11 30 -2 75 -7 100 -10 25 -3 68 -8 95 -10 28 -3 70 -7
95 -10 25 -3 68 -7 95 -10 28 -3 70 -7 95 -10 25 -2 72 -7 105 -10 33 -4 76
-8 95 -10 19 -2 67 -7 105 -11 39 -3 84 -8 100 -10 17 -2 57 -6 90 -9 33 -4
74 -8 90 -9 111 -12 211 -23 290 -30 28 -3 73 -8 100 -11 28 -2 75 -7 105 -10
30 -3 71 -7 90 -9 19 -2 67 -7 105 -10 39 -4 81 -9 95 -11 14 -2 54 -7 90 -10
36 -3 83 -8 105 -10 22 -3 69 -7 105 -10 36 -3 81 -8 100 -11 19 -2 60 -7 90
-10 30 -2 75 -7 100 -10 25 -3 72 -7 105 -10 33 -2 76 -7 95 -9 39 -6 113 -13
180 -19 25 -3 65 -7 90 -10 25 -3 70 -8 100 -10 102 -10 165 -16 210 -21 90
-11 136 -15 185 -19 28 -3 70 -7 95 -10 25 -4 72 -8 105 -11 33 -2 71 -7 85
-9 14 -3 59 -7 100 -11 41 -3 89 -7 105 -10 17 -2 59 -7 95 -10 36 -3 78 -8
93 -10 20 -4 59 10 144 50 63 30 117 55 118 55 2 0 57 25 122 56 65 31 147 69
181 85 35 16 110 51 165 78 56 27 125 59 152 71 28 13 106 49 174 81 67 33
125 59 128 59 2 0 45 20 95 45 50 25 97 45 104 45 8 0 14 4 14 8 0 4 24 17 53
27 46 17 49 20 27 25 -13 3 -46 3 -71 0 -26 -3 -56 -3 -68 2 -12 4 -21 3 -21
-2 0 -5 -6 -7 -12 -5 -16 6 -108 12 -112 7z"/>
<path d="M5736 5802 c-2 -2 -26 -5 -53 -7 -26 -2 -73 -7 -103 -10 -30 -3 -75
-8 -100 -11 -25 -3 -65 -7 -90 -10 -25 -3 -61 -7 -80 -9 -19 -2 -57 -6 -85 -9
-27 -3 -75 -8 -105 -11 -30 -3 -71 -8 -90 -10 -19 -2 -64 -7 -100 -11 -36 -3
-76 -8 -90 -9 -14 -2 -59 -6 -100 -10 -41 -4 -77 -8 -80 -10 -3 -2 -48 -7
-100 -10 -52 -4 -97 -8 -100 -10 -3 -2 -39 -6 -80 -10 -41 -4 -86 -9 -100 -10
-14 -2 -54 -6 -90 -9 -36 -4 -76 -9 -90 -11 -14 -2 -52 -6 -85 -10 -57 -6 -79
-8 -200 -20 -59 -6 -125 -14 -180 -20 -22 -3 -65 -7 -95 -10 -30 -3 -73 -7
-95 -10 -22 -3 -62 -7 -90 -10 -27 -2 -70 -7 -95 -10 -58 -6 -133 -14 -190
-20 -112 -12 -138 -14 -175 -19 -22 -3 -65 -8 -95 -11 -30 -3 -68 -7 -85 -9
-16 -2 -59 -7 -95 -10 -36 -3 -81 -8 -100 -10 -19 -3 -62 -7 -95 -11 -33 -3
-79 -8 -102 -10 -24 -3 -62 -7 -85 -10 -24 -2 -70 -7 -103 -10 -33 -4 -71 -8
-85 -11 -14 -2 -60 -6 -102 -10 -43 -3 -88 -8 -100 -11 -13 -2 -31 -5 -40 -5
-30 1 -21 -7 40 -35 31 -14 100 -46 152 -71 52 -25 97 -46 100 -47 3 -1 34
-15 70 -32 36 -17 101 -47 144 -68 44 -20 108 -50 142 -66 38 -19 71 -28 85
-25 13 3 42 8 64 11 22 3 81 12 130 21 50 9 104 17 120 19 17 2 30 4 30 5 0 1
9 3 20 4 11 2 40 7 65 11 25 4 56 9 70 10 14 2 35 6 46 8 23 6 64 12 134 22
25 3 52 8 60 10 8 2 33 7 55 10 23 3 50 7 62 9 12 3 43 8 70 12 26 3 57 8 68
10 19 4 42 8 120 20 17 3 57 9 90 15 33 6 71 12 85 14 25 4 72 11 120 20 14 2
41 7 60 9 19 3 46 8 60 11 14 3 43 8 65 11 22 3 51 7 65 9 14 3 41 6 60 9 19
3 71 12 115 20 44 9 100 18 125 21 25 3 83 13 130 21 47 8 101 17 120 20 28 4
214 35 480 79 14 2 43 7 65 10 22 3 51 8 65 11 14 2 36 6 49 9 12 2 43 7 68
10 24 2 48 7 51 9 4 2 30 6 57 10 28 3 61 8 75 10 14 3 42 7 64 10 51 8 52 8
54 58 1 24 5 68 8 98 3 30 6 64 7 75 2 15 -4 20 -26 20 -15 1 -29 -1 -31 -3z"/>
<path d="M9129 5802 c-2 -8 -2 0 6 -97 8 -108 12 -135 17 -140 2 -3 22 -7 44
-10 21 -3 50 -7 64 -10 14 -3 43 -7 65 -10 22 -3 51 -8 65 -10 14 -3 36 -7 50
-10 14 -2 43 -6 65 -10 22 -3 67 -11 100 -16 33 -6 74 -12 90 -15 17 -3 55 -9
85 -14 30 -5 69 -12 85 -14 17 -3 86 -14 154 -26 68 -11 126 -18 129 -16 3 3
11 1 18 -5 8 -6 20 -9 28 -6 8 3 17 3 20 -1 4 -3 14 -7 24 -8 25 -4 105 -17
122 -20 8 -1 33 -5 55 -9 22 -3 65 -10 95 -15 30 -6 69 -12 85 -14 72 -10 113
-17 160 -26 28 -5 64 -11 80 -14 35 -5 201 -31 260 -41 22 -4 49 -8 60 -10
106 -17 193 -31 235 -40 14 -3 43 -7 65 -10 51 -6 149 -23 175 -30 3 0 31 -5
64 -9 59 -8 85 -12 134 -21 15 -3 43 -8 62 -10 19 -3 76 -12 125 -21 50 -9
104 -18 120 -20 17 -1 68 -10 115 -18 170 -30 127 -38 353 68 54 25 102 46
107 46 6 0 10 4 10 10 0 5 3 9 8 8 9 -2 35 9 152 65 52 25 130 61 174 82 43
20 76 38 75 40 -4 3 -69 11 -169 21 -19 2 -53 5 -75 8 -22 2 -69 7 -105 11
-36 3 -81 8 -100 10 -105 11 -231 25 -275 30 -27 3 -70 8 -95 10 -25 3 -65 7
-89 10 -25 4 -70 8 -100 11 -30 3 -69 6 -86 8 -16 2 -55 7 -85 10 -30 3 -75 8
-100 11 -25 3 -72 7 -105 10 -33 3 -76 8 -95 11 -19 3 -53 8 -75 10 -52 4
-140 14 -185 19 -19 2 -66 7 -103 10 -37 4 -78 8 -90 11 -12 2 -49 6 -82 9
-33 2 -76 6 -95 9 -19 3 -66 8 -105 11 -38 4 -83 8 -100 11 -16 2 -55 6 -85 9
-30 3 -71 7 -90 9 -19 3 -62 8 -95 11 -33 3 -73 8 -90 11 -16 2 -54 6 -84 8
-82 7 -183 17 -211 22 -14 2 -54 6 -90 9 -36 3 -78 8 -95 10 -29 4 -78 10
-167 20 -24 3 -70 7 -103 11 -33 3 -76 7 -95 10 -19 2 -62 6 -95 9 -33 3 -73
7 -90 10 -34 4 -119 14 -185 20 -25 2 -60 6 -77 9 -18 3 -34 2 -34 -2z"/>
<path d="M5707 5404 c-1 -1 -22 -5 -47 -8 -25 -4 -58 -10 -75 -13 -16 -4 -37
-7 -45 -8 -8 -1 -33 -5 -55 -10 -22 -5 -51 -9 -65 -11 -14 -1 -25 -3 -25 -4 0
-1 -13 -3 -30 -5 -16 -2 -46 -7 -65 -10 -19 -4 -48 -9 -64 -11 -15 -2 -35 -5
-45 -8 -9 -3 -34 -8 -56 -11 -23 -3 -52 -7 -65 -10 -13 -3 -40 -7 -60 -10 -20
-3 -47 -8 -60 -10 -14 -3 -45 -8 -70 -11 -25 -3 -65 -10 -90 -16 -25 -5 -61
-12 -80 -14 -19 -2 -100 -16 -180 -30 -80 -14 -161 -27 -180 -29 -19 -3 -46
-7 -60 -10 -14 -3 -41 -8 -60 -11 -19 -2 -43 -7 -54 -10 -10 -3 -36 -7 -56 -9
-21 -2 -47 -6 -57 -9 -10 -3 -38 -8 -63 -11 -25 -3 -52 -7 -60 -10 -8 -2 -33
-7 -55 -10 -84 -13 -116 -19 -275 -47 -63 -11 -124 -21 -135 -22 -23 -3 -111
-17 -140 -22 -11 -2 -60 -11 -110 -20 -49 -8 -101 -17 -115 -20 -14 -2 -43 -7
-65 -9 -22 -3 -47 -8 -55 -10 -17 -5 -58 -12 -115 -20 -115 -15 -146 6 272
-188 100 -47 184 -83 186 -80 3 2 18 6 33 8 16 2 29 4 29 5 0 2 12 4 55 13 14
3 48 11 75 17 28 6 59 13 70 16 27 5 65 13 90 19 11 2 74 16 140 30 66 15 127
29 135 32 8 3 26 7 40 9 28 5 43 8 80 17 14 4 36 9 50 12 14 2 77 16 140 30
63 15 124 27 135 29 12 1 25 5 30 8 10 5 67 18 110 24 11 2 49 10 85 19 69 16
103 24 135 29 11 2 49 11 85 20 71 17 193 45 225 52 19 3 31 6 95 20 14 3 36
7 50 10 41 8 242 53 285 64 22 5 51 12 65 14 36 7 69 14 88 20 9 3 31 8 47 11
110 20 104 13 90 101 -3 22 -8 56 -10 75 -2 19 -4 38 -4 42 -1 6 -67 7 -74 1z"/>
<path d="M9139 5404 c-1 -5 -3 -22 -4 -39 -3 -46 -15 -123 -21 -139 -7 -17 20
-25 236 -72 14 -3 45 -10 70 -15 25 -6 54 -13 65 -15 11 -2 61 -13 110 -24 50
-11 101 -23 115 -26 14 -3 45 -10 70 -16 25 -6 54 -12 65 -14 24 -4 91 -20
125 -29 14 -3 34 -8 45 -9 11 -2 20 -4 20 -6 0 -1 11 -3 25 -4 14 -2 35 -6 47
-10 13 -4 35 -9 50 -12 16 -2 48 -9 73 -15 88 -21 125 -29 150 -33 27 -5 38
-8 115 -26 28 -7 57 -13 65 -14 14 -2 122 -27 205 -47 52 -12 85 -20 110 -23
11 -2 20 -4 20 -5 0 -1 12 -4 26 -6 14 -2 43 -8 65 -14 21 -5 50 -12 64 -15
14 -2 68 -14 120 -26 52 -11 115 -26 140 -31 25 -5 101 -23 170 -39 109 -25
127 -27 141 -14 8 8 19 14 24 14 5 0 36 13 69 29 34 16 93 43 131 61 39 18 97
45 131 61 34 16 66 29 72 29 7 0 12 4 12 8 0 4 16 14 37 21 43 16 32 25 -40
36 -27 3 -59 9 -70 12 -12 2 -29 5 -37 5 -8 0 -33 4 -55 8 -22 5 -56 11 -75
14 -51 8 -331 55 -355 60 -11 2 -42 7 -69 10 -27 4 -52 9 -55 10 -3 2 -28 7
-56 10 -27 4 -59 9 -70 11 -11 3 -38 7 -60 11 -53 8 -76 12 -100 17 -11 3 -42
8 -68 11 -27 4 -57 9 -67 11 -9 2 -33 6 -51 9 -19 3 -43 7 -54 10 -11 2 -42 7
-68 10 -27 4 -59 10 -70 13 -12 2 -35 6 -52 8 -16 2 -46 6 -65 10 -19 3 -87
15 -150 26 -63 11 -128 22 -145 25 -16 3 -41 7 -55 9 -14 2 -68 11 -120 20
-52 9 -108 19 -125 22 -41 6 -204 33 -235 39 -14 2 -41 7 -60 10 -19 3 -46 7
-60 10 -14 2 -40 7 -59 9 -56 8 -94 16 -100 19 -3 2 -31 7 -61 10 -53 6 -77
10 -130 21 -57 13 -120 17 -121 9z"/>
<path d="M5760 5044 c-30 -7 -66 -16 -80 -18 -14 -3 -56 -13 -95 -21 -88 -21
-90 -21 -150 -35 -27 -6 -57 -13 -65 -15 -8 -2 -55 -12 -105 -24 -49 -11 -105
-23 -124 -26 -19 -3 -37 -8 -41 -10 -3 -2 -17 -6 -31 -9 -31 -6 -49 -10 -134
-31 -77 -18 -109 -25 -140 -29 -11 -2 -27 -6 -35 -9 -8 -3 -58 -15 -110 -26
-52 -12 -124 -28 -160 -36 -80 -19 -111 -26 -175 -39 -11 -3 -81 -19 -155 -36
-74 -17 -142 -32 -150 -34 -17 -3 -56 -12 -115 -27 -22 -5 -49 -11 -60 -13
-11 -2 -38 -9 -60 -15 -22 -5 -53 -13 -70 -15 -16 -3 -39 -8 -50 -11 -11 -2
-36 -8 -55 -13 -42 -10 -51 -4 145 -95 77 -36 183 -85 235 -110 211 -99 208
-97 237 -86 16 6 35 12 43 14 13 4 254 93 300 112 8 3 20 7 26 8 6 2 27 10 45
18 19 8 63 25 99 37 36 12 79 28 95 35 17 7 82 32 145 55 63 23 123 46 133 52
10 5 26 11 35 13 15 3 262 93 322 118 14 6 27 11 30 11 9 2 104 37 125 46 11
5 65 26 120 46 55 20 111 41 125 47 14 6 28 10 33 9 11 -3 9 8 -20 96 -30 90
-26 88 -113 66z"/>
<path d="M9066 5025 c-9 -21 -16 -41 -16 -45 0 -4 -7 -21 -16 -39 -21 -41 -14
-56 33 -71 21 -7 52 -18 68 -25 17 -7 82 -32 145 -55 63 -23 129 -48 147 -56
17 -8 36 -14 42 -14 7 0 28 -9 49 -19 20 -10 41 -19 45 -19 8 0 104 -35 214
-78 34 -13 64 -24 68 -24 4 0 21 -7 38 -15 28 -12 102 -40 132 -49 6 -2 21 -8
35 -13 14 -6 59 -23 100 -37 41 -15 102 -38 135 -51 33 -12 96 -36 140 -53 44
-16 89 -33 100 -37 11 -4 25 -9 30 -11 6 -1 47 -16 92 -34 l81 -31 79 37 c142
67 208 97 213 99 3 0 30 13 61 28 31 15 61 27 67 27 7 0 12 5 12 10 0 6 6 10
13 10 6 0 45 16 84 35 40 19 77 35 83 35 5 0 10 3 10 8 0 7 -79 30 -125 36
-11 2 -29 6 -40 9 -11 3 -31 8 -45 11 -14 3 -65 14 -115 26 -49 12 -108 25
-130 30 -22 4 -53 11 -70 15 -16 3 -38 8 -47 11 -10 3 -30 8 -45 11 -16 3 -32
6 -38 7 -5 2 -23 6 -40 10 -16 4 -46 11 -65 16 -19 5 -48 11 -65 14 -37 7 -45
9 -180 40 -166 39 -248 58 -270 61 -11 2 -49 10 -84 20 -35 9 -76 18 -90 20
-14 2 -33 6 -41 9 -8 3 -26 7 -40 10 -14 2 -54 11 -90 20 -84 20 -198 46 -230
52 -14 3 -70 16 -125 29 -55 13 -116 27 -135 31 -19 4 -39 9 -45 10 -114 30
-112 30 -129 -11z"/>
</g>
</svg>
