<?xml version="1.0" encoding="UTF-8"?>
<svg xmlns="http://www.w3.org/2000/svg" xmlns:xlink="http://www.w3.org/1999/xlink" width="280pt" height="131pt" viewBox="0 0 280 131" version="1.1">
<g id="surface1">
<path style=" stroke:none;fill-rule:evenodd;fill:rgb(92.89856%,10.998535%,14.099121%);fill-opacity:1;" d="M 229.917969 0.132813 C 234.921875 0.132813 238.890625 1.691406 241.859375 4.78125 C 244.808594 7.871094 246.292969 12.046875 246.292969 17.285156 L 246.292969 29.074219 C 246.292969 32.554688 245.296875 35.257813 243.28125 37.179688 C 241.289063 39.105469 238.175781 40.332031 233.96875 40.90625 C 238.441406 41.847656 241.636719 43.28125 243.484375 45.183594 C 245.359375 47.085938 246.292969 49.769531 246.292969 53.246094 L 246.292969 68.128906 C 246.292969 73.367188 244.808594 77.542969 241.859375 80.652344 C 238.890625 83.785156 234.921875 85.339844 229.917969 85.339844 L 178.171875 85.339844 L 178.171875 67.410156 L 185.027344 67.410156 L 185.027344 17.941406 L 178.171875 17.941406 L 178.171875 0.132813 Z M 208.929688 17.941406 L 208.929688 33.515625 L 222.109375 33.515625 L 222.109375 17.941406 Z M 208.929688 67.410156 L 222.109375 67.410156 L 222.109375 49.234375 L 208.929688 49.234375 Z M 116.414063 80.566406 C 116.40625 80.5625 116.402344 80.554688 116.398438 80.550781 C 113.488281 77.339844 112.023438 72.9375 112.023438 67.289063 L 112.023438 18.0625 C 112.023438 12.4375 113.488281 8.035156 116.398438 4.863281 C 119.328125 1.710938 123.335938 0.132813 128.398438 0.132813 L 170.238281 0.132813 L 170.238281 25.433594 L 149.390625 25.433594 L 149.390625 17.941406 L 135.496094 17.941406 L 135.496094 67.410156 L 149.390625 67.410156 L 149.390625 51.222656 L 142.1875 51.222656 L 142.1875 33.660156 L 171.378906 33.660156 L 171.378906 85.339844 L 167.328125 85.339844 C 161.867188 75.996094 151.726563 69.699219 140.160156 69.699219 C 130.699219 69.699219 122.1875 73.914063 116.414063 80.566406 Z M 103.136719 0.132813 L 103.136719 17.941406 L 95.464844 17.941406 L 84.035156 36.363281 L 100.105469 36.363281 L 100.105469 67.410156 L 106.960938 67.410156 L 106.960938 85.339844 L 75.796875 85.339844 L 75.796875 52.183594 L 62.636719 52.183594 L 62.636719 85.339844 L 31.882813 85.339844 L 31.882813 67.410156 L 38.613281 67.410156 L 38.613281 17.941406 L 31.882813 17.941406 L 31.882813 0.132813 L 62.636719 0.132813 L 62.636719 35.214844 L 80.089844 0.132813 Z M 213.191406 120.242188 L 201.355469 125.769531 L 169.1875 113.753906 C 169.628906 112.695313 170.015625 111.605469 170.34375 110.496094 Z M 227.863281 113.386719 L 217.660156 118.152344 L 171.007813 107.777344 C 171.261719 106.503906 171.4375 105.203125 171.53125 103.878906 Z M 246.640625 104.621094 L 232.753906 111.105469 L 171.609375 101.085938 C 171.585938 99.53125 171.445313 98.007813 171.203125 96.515625 Z M 279.785156 89.140625 L 252.144531 102.046875 L 170.617188 93.6875 C 170.238281 92.21875 169.753906 90.792969 169.175781 89.414063 Z M 66.824219 120.242188 L 78.65625 125.769531 L 110.824219 113.753906 C 110.382813 112.695313 109.996094 111.605469 109.671875 110.496094 Z M 52.148438 113.386719 L 62.351563 118.152344 L 109.003906 107.777344 C 108.753906 106.503906 108.574219 105.203125 108.480469 103.878906 Z M 33.371094 104.621094 L 47.257813 111.105469 L 108.402344 101.085938 C 108.429688 99.53125 108.566406 98.007813 108.808594 96.515625 Z M 0.226563 89.140625 L 27.867188 102.046875 L 109.398438 93.6875 C 109.777344 92.21875 110.257813 90.792969 110.835938 89.414063 Z M 140.15625 72.503906 C 156.183594 72.503906 169.253906 85.574219 169.253906 101.597656 C 169.253906 117.625 156.183594 130.695313 140.15625 130.695313 C 124.128906 130.695313 111.058594 117.625 111.058594 101.597656 C 111.058594 85.574219 124.128906 72.503906 140.15625 72.503906 Z M 140.15625 75.980469 C 154.265625 75.980469 165.773438 87.488281 165.773438 101.597656 C 165.773438 115.707031 154.265625 127.21875 140.15625 127.21875 C 126.046875 127.21875 114.539063 115.707031 114.539063 101.597656 C 114.539063 87.488281 126.046875 75.980469 140.15625 75.980469 Z M 127.914063 98.214844 L 136.972656 98.214844 L 139.769531 89.609375 L 142.5625 98.214844 L 151.625 98.214844 L 144.308594 103.542969 L 147.101563 112.144531 L 139.777344 106.820313 L 132.433594 112.148438 L 135.230469 103.542969 Z M 119.382813 95.433594 L 134.953125 95.433594 L 139.773438 80.617188 L 144.582031 95.433594 L 160.15625 95.433594 L 147.574219 104.601563 L 152.386719 119.417969 L 139.773438 110.253906 L 127.152344 119.417969 L 131.964844 104.601563 L 119.382813 95.433594 "/>
</g>
</svg>
